# xmcd CD database file
#
# Track frame offsets:
#	150
#	10457
#	17880
#	25447
#	32935
#	38450
#	47722
#	60642
#	85455
#	90552
#	99977
#	106057
#	115592
#	135877
#	143120
#	160800
#	191605
#	196992
#	202355
#	212602
#	218967
#	224642
#	231670
#	241762
#	262942
#	268850
#	277977
#	282762
#	301392
#	306015
#
# Disc length: 4248 seconds
#
# Revision: 0
# Processed by: cddbd v1.5.1PL0 Copyright (c) Steve Scherf et al.
# Submitted via: CDex 1.51
#
DISCID=b210961e
DTITLE=Tatiana Nikolaeva - Bach - Well-Tempered Clavier Book I
DYEAR=1971
DGENRE=Classical
TTITLE0=Prelude In C Major BWV 846
TTITLE1=Fugue In C Major BWV 846
TTITLE2=Prelude In C Minor BWV 847
TTITLE3=Fugue In C Minor BWV 847
TTITLE4=Prelude In C Sharp Major BWV 848
TTITLE5=Fugue In C Sharp Major BWV 848
TTITLE6=Prelude In C Sharp Minor BWV 849
TTITLE7=Fugue In C Sharp Minor BWV 849
TTITLE8=Prelude In D Major BWV 850
TTITLE9=Fugue In D Major BWV 850
TTITLE10=Prelude In D Minor BWV 851
TTITLE11=Fugue In D Minor BWV 851
TTITLE12=Prelude In E Flat Major BWV 852
TTITLE13=Fugue In E Flat Major BWV 852
TTITLE14=Prelude In E Flat Minor BWV 853
TTITLE15=Fugue In D Sharp Minor BWV 853
TTITLE16=Prelude In E Major BWV 854
TTITLE17=Fugue In E Major BWV 854
TTITLE18=Prelude In E Minor BWV 855
TTITLE19=Fugue In E Minor BWV 855
TTITLE20=Prelude In F Major BWV 856
TTITLE21=Fugue In F Major BWV 856
TTITLE22=Prelude In F Minor BWV 857
TTITLE23=Fugue In F Minor BWV 857
TTITLE24=Prelude In F Sharp Major BWV 858
TTITLE25=Fugue In F Sharp Major BWV 858
TTITLE26=Prelude In F Sharp Minor BWV 859
TTITLE27=Fugue In F Sharp Minor BWV 859
TTITLE28=Prelude In G Major BWV 860
TTITLE29=Fugue In G Major BWV 860
EXTD=YEAR: 1971
EXTT0=
EXTT1=
EXTT2=
EXTT3=
EXTT4=
EXTT5=
EXTT6=
EXTT7=
EXTT8=
EXTT9=
EXTT10=
EXTT11=
EXTT12=
EXTT13=
EXTT14=
EXTT15=
EXTT16=
EXTT17=
EXTT18=
EXTT19=
EXTT20=
EXTT21=
EXTT22=
EXTT23=
EXTT24=
EXTT25=
EXTT26=
EXTT27=
EXTT28=
EXTT29=
PLAYORDER=
